<mxfile host="app.diagrams.net" modified="2023-06-16T21:11:32.443Z" agent="Mozilla/5.0 (Windows NT 10.0; Win64; x64) AppleWebKit/537.36 (KHTML, like Gecko) Chrome/114.0.0.0 Safari/537.36" etag="xFYQGaZ_xTxaKIHMZI9_" version="21.4.0" type="github">
  <diagram name="Página-1" id="Qh7bI7CGL2_jszbcvP-a">
    <mxGraphModel dx="440" dy="238" grid="1" gridSize="10" guides="1" tooltips="1" connect="1" arrows="1" fold="1" page="1" pageScale="1" pageWidth="1200" pageHeight="1920" math="0" shadow="0">
      <root>
        <mxCell id="0" />
        <mxCell id="1" parent="0" />
        <mxCell id="DQx1dqBmSsrzj3G31s6L-1" value="Ingresar a la plataforma ARA." style="strokeWidth=2;html=1;shape=mxgraph.flowchart.start_1;whiteSpace=wrap;fillColor=#1ba1e2;fontColor=#ffffff;strokeColor=#006EAF;" parent="1" vertex="1">
          <mxGeometry x="428" y="20" width="100" height="60" as="geometry" />
        </mxCell>
        <mxCell id="DQx1dqBmSsrzj3G31s6L-2" value="Autenticacion de usuario" style="rounded=0;whiteSpace=wrap;html=1;fillColor=#1ba1e2;fontColor=#ffffff;strokeColor=#006EAF;" parent="1" vertex="1">
          <mxGeometry x="418" y="120" width="120" height="30" as="geometry" />
        </mxCell>
        <mxCell id="DQx1dqBmSsrzj3G31s6L-3" value="" style="endArrow=none;html=1;rounded=0;entryX=0.5;entryY=1;entryDx=0;entryDy=0;entryPerimeter=0;" parent="1" target="DQx1dqBmSsrzj3G31s6L-1" edge="1">
          <mxGeometry width="50" height="50" relative="1" as="geometry">
            <mxPoint x="478" y="120" as="sourcePoint" />
            <mxPoint x="318" y="220" as="targetPoint" />
            <Array as="points">
              <mxPoint x="478" y="120" />
            </Array>
          </mxGeometry>
        </mxCell>
        <mxCell id="DQx1dqBmSsrzj3G31s6L-4" value="¿Esta registrado en el sistema?" style="rhombus;whiteSpace=wrap;html=1;fillColor=#1ba1e2;fontColor=#ffffff;strokeColor=#006EAF;" parent="1" vertex="1">
          <mxGeometry x="428" y="200" width="100" height="120" as="geometry" />
        </mxCell>
        <mxCell id="DQx1dqBmSsrzj3G31s6L-5" value="" style="endArrow=none;html=1;rounded=0;entryX=0.5;entryY=1;entryDx=0;entryDy=0;entryPerimeter=0;" parent="1" edge="1">
          <mxGeometry width="50" height="50" relative="1" as="geometry">
            <mxPoint x="478" y="200" as="sourcePoint" />
            <mxPoint x="478" y="150" as="targetPoint" />
          </mxGeometry>
        </mxCell>
        <mxCell id="DQx1dqBmSsrzj3G31s6L-7" value="" style="endArrow=none;html=1;rounded=0;entryX=0.5;entryY=1;entryDx=0;entryDy=0;entryPerimeter=0;" parent="1" edge="1">
          <mxGeometry width="50" height="50" relative="1" as="geometry">
            <mxPoint x="478" y="350" as="sourcePoint" />
            <mxPoint x="478" y="320" as="targetPoint" />
          </mxGeometry>
        </mxCell>
        <mxCell id="DQx1dqBmSsrzj3G31s6L-8" value="" style="endArrow=none;html=1;rounded=0;entryX=1;entryY=0.5;entryDx=0;entryDy=0;" parent="1" target="DQx1dqBmSsrzj3G31s6L-4" edge="1">
          <mxGeometry width="50" height="50" relative="1" as="geometry">
            <mxPoint x="638" y="260" as="sourcePoint" />
            <mxPoint x="488" y="330" as="targetPoint" />
            <Array as="points" />
          </mxGeometry>
        </mxCell>
        <mxCell id="DQx1dqBmSsrzj3G31s6L-9" value="No" style="text;html=1;strokeColor=none;fillColor=none;align=center;verticalAlign=middle;whiteSpace=wrap;rounded=0;" parent="1" vertex="1">
          <mxGeometry x="568" y="250" width="30" height="10" as="geometry" />
        </mxCell>
        <mxCell id="DQx1dqBmSsrzj3G31s6L-10" value="Si" style="text;html=1;strokeColor=none;fillColor=none;align=center;verticalAlign=middle;whiteSpace=wrap;rounded=0;" parent="1" vertex="1">
          <mxGeometry x="468" y="330" width="30" height="10" as="geometry" />
        </mxCell>
        <mxCell id="DQx1dqBmSsrzj3G31s6L-15" style="edgeStyle=orthogonalEdgeStyle;rounded=0;orthogonalLoop=1;jettySize=auto;html=1;exitX=0.5;exitY=1;exitDx=0;exitDy=0;" parent="1" source="DQx1dqBmSsrzj3G31s6L-12" edge="1">
          <mxGeometry relative="1" as="geometry">
            <mxPoint x="697.7272727272727" y="310" as="targetPoint" />
          </mxGeometry>
        </mxCell>
        <mxCell id="DQx1dqBmSsrzj3G31s6L-12" value="Registrar usuarios" style="rounded=0;whiteSpace=wrap;html=1;fillColor=#1ba1e2;fontColor=#ffffff;strokeColor=#006EAF;" parent="1" vertex="1">
          <mxGeometry x="638" y="245" width="120" height="30" as="geometry" />
        </mxCell>
        <mxCell id="DQx1dqBmSsrzj3G31s6L-29" style="edgeStyle=orthogonalEdgeStyle;rounded=0;orthogonalLoop=1;jettySize=auto;html=1;exitX=0;exitY=0.5;exitDx=0;exitDy=0;entryX=1;entryY=0.5;entryDx=0;entryDy=0;" parent="1" source="DQx1dqBmSsrzj3G31s6L-16" target="DQx1dqBmSsrzj3G31s6L-17" edge="1">
          <mxGeometry relative="1" as="geometry" />
        </mxCell>
        <mxCell id="DQx1dqBmSsrzj3G31s6L-16" value="Administrador Registra:&lt;br&gt;-Usuario.&lt;br&gt;-Apellido Pateno.&lt;br&gt;-RFC.&lt;br&gt;-Nombre(s).&lt;br&gt;-Apellido Materno.&lt;br&gt;-Contraseña.&lt;br&gt;-Puesto.&lt;br&gt;-Correo Electronico." style="rounded=0;whiteSpace=wrap;html=1;fillColor=#1ba1e2;fontColor=#ffffff;strokeColor=#006EAF;align=left;" parent="1" vertex="1">
          <mxGeometry x="628" y="313" width="140" height="147" as="geometry" />
        </mxCell>
        <mxCell id="DQx1dqBmSsrzj3G31s6L-19" value="" style="edgeStyle=orthogonalEdgeStyle;rounded=0;orthogonalLoop=1;jettySize=auto;html=1;" parent="1" source="DQx1dqBmSsrzj3G31s6L-17" target="DQx1dqBmSsrzj3G31s6L-18" edge="1">
          <mxGeometry relative="1" as="geometry" />
        </mxCell>
        <mxCell id="DQx1dqBmSsrzj3G31s6L-21" value="" style="edgeStyle=orthogonalEdgeStyle;rounded=0;orthogonalLoop=1;jettySize=auto;html=1;" parent="1" source="DQx1dqBmSsrzj3G31s6L-17" target="DQx1dqBmSsrzj3G31s6L-20" edge="1">
          <mxGeometry relative="1" as="geometry" />
        </mxCell>
        <mxCell id="3GplsCGxQkK43SpxvfvO-1" style="edgeStyle=orthogonalEdgeStyle;rounded=0;orthogonalLoop=1;jettySize=auto;html=1;" edge="1" parent="1" source="DQx1dqBmSsrzj3G31s6L-17" target="3GplsCGxQkK43SpxvfvO-13">
          <mxGeometry relative="1" as="geometry">
            <mxPoint x="728" y="540" as="targetPoint" />
            <Array as="points">
              <mxPoint x="478" y="450" />
              <mxPoint x="598" y="450" />
              <mxPoint x="598" y="540" />
            </Array>
          </mxGeometry>
        </mxCell>
        <mxCell id="DQx1dqBmSsrzj3G31s6L-17" value="Ingresado a las funcionalidades del sistema." style="rounded=0;whiteSpace=wrap;html=1;fillColor=#1ba1e2;fontColor=#ffffff;strokeColor=#006EAF;align=left;" parent="1" vertex="1">
          <mxGeometry x="408" y="350" width="140" height="60" as="geometry" />
        </mxCell>
        <mxCell id="DQx1dqBmSsrzj3G31s6L-23" value="" style="edgeStyle=orthogonalEdgeStyle;rounded=0;orthogonalLoop=1;jettySize=auto;html=1;" parent="1" source="DQx1dqBmSsrzj3G31s6L-18" target="DQx1dqBmSsrzj3G31s6L-22" edge="1">
          <mxGeometry relative="1" as="geometry" />
        </mxCell>
        <mxCell id="DQx1dqBmSsrzj3G31s6L-18" value="Almacen" style="whiteSpace=wrap;html=1;align=left;fillColor=#1ba1e2;strokeColor=#006EAF;fontColor=#ffffff;rounded=0;" parent="1" vertex="1">
          <mxGeometry x="388" y="460" width="50" height="20" as="geometry" />
        </mxCell>
        <mxCell id="DQx1dqBmSsrzj3G31s6L-25" value="" style="edgeStyle=orthogonalEdgeStyle;rounded=0;orthogonalLoop=1;jettySize=auto;html=1;" parent="1" source="DQx1dqBmSsrzj3G31s6L-20" target="DQx1dqBmSsrzj3G31s6L-24" edge="1">
          <mxGeometry relative="1" as="geometry" />
        </mxCell>
        <mxCell id="DQx1dqBmSsrzj3G31s6L-20" value="Catalogos" style="whiteSpace=wrap;html=1;align=left;fillColor=#1ba1e2;strokeColor=#006EAF;fontColor=#ffffff;rounded=0;" parent="1" vertex="1">
          <mxGeometry x="208" y="357" width="60" height="33" as="geometry" />
        </mxCell>
        <mxCell id="3GplsCGxQkK43SpxvfvO-5" style="edgeStyle=orthogonalEdgeStyle;rounded=0;orthogonalLoop=1;jettySize=auto;html=1;exitX=0.5;exitY=1;exitDx=0;exitDy=0;entryX=0.5;entryY=0;entryDx=0;entryDy=0;entryPerimeter=0;" edge="1" parent="1" source="DQx1dqBmSsrzj3G31s6L-22" target="3GplsCGxQkK43SpxvfvO-4">
          <mxGeometry relative="1" as="geometry" />
        </mxCell>
        <mxCell id="DQx1dqBmSsrzj3G31s6L-22" value="Inventario de componentes" style="rounded=0;whiteSpace=wrap;html=1;align=left;fillColor=#1ba1e2;strokeColor=#006EAF;fontColor=#ffffff;" parent="1" vertex="1">
          <mxGeometry x="363" y="540" width="155" height="30" as="geometry" />
        </mxCell>
        <mxCell id="3GplsCGxQkK43SpxvfvO-3" value="" style="edgeStyle=orthogonalEdgeStyle;rounded=0;orthogonalLoop=1;jettySize=auto;html=1;" edge="1" parent="1" source="DQx1dqBmSsrzj3G31s6L-24" target="3GplsCGxQkK43SpxvfvO-2">
          <mxGeometry relative="1" as="geometry" />
        </mxCell>
        <mxCell id="DQx1dqBmSsrzj3G31s6L-24" value="Almacen" style="whiteSpace=wrap;html=1;align=left;fillColor=#1ba1e2;strokeColor=#006EAF;fontColor=#ffffff;rounded=0;" parent="1" vertex="1">
          <mxGeometry x="148" y="430" width="50" height="30" as="geometry" />
        </mxCell>
        <mxCell id="DQx1dqBmSsrzj3G31s6L-26" value="Consulta del inventario de componentes de todos los almacenes." style="whiteSpace=wrap;html=1;align=left;fillColor=#1ba1e2;strokeColor=#006EAF;fontColor=#ffffff;rounded=0;" parent="1" vertex="1">
          <mxGeometry x="356.75" y="770" width="167.5" height="60" as="geometry" />
        </mxCell>
        <mxCell id="3GplsCGxQkK43SpxvfvO-17" value="" style="edgeStyle=orthogonalEdgeStyle;rounded=0;orthogonalLoop=1;jettySize=auto;html=1;" edge="1" parent="1" source="3GplsCGxQkK43SpxvfvO-2" target="3GplsCGxQkK43SpxvfvO-16">
          <mxGeometry relative="1" as="geometry" />
        </mxCell>
        <mxCell id="3GplsCGxQkK43SpxvfvO-2" value="Busqueda de un almacen atraves del filtro" style="whiteSpace=wrap;html=1;align=left;fillColor=#1ba1e2;strokeColor=#006EAF;fontColor=#ffffff;rounded=0;" vertex="1" parent="1">
          <mxGeometry x="113" y="500" width="120" height="55" as="geometry" />
        </mxCell>
        <mxCell id="3GplsCGxQkK43SpxvfvO-4" value="Uso de filtros" style="strokeWidth=2;html=1;shape=mxgraph.flowchart.decision;whiteSpace=wrap;fillColor=#1ba1e2;fontColor=#ffffff;strokeColor=#006EAF;" vertex="1" parent="1">
          <mxGeometry x="390.5" y="630" width="100" height="100" as="geometry" />
        </mxCell>
        <mxCell id="3GplsCGxQkK43SpxvfvO-6" value="Si" style="text;html=1;strokeColor=none;fillColor=none;align=center;verticalAlign=middle;whiteSpace=wrap;rounded=0;" vertex="1" parent="1">
          <mxGeometry x="498" y="668" width="30" height="10" as="geometry" />
        </mxCell>
        <mxCell id="3GplsCGxQkK43SpxvfvO-7" value="" style="endArrow=none;html=1;rounded=0;entryX=1;entryY=0.5;entryDx=0;entryDy=0;" edge="1" parent="1">
          <mxGeometry width="50" height="50" relative="1" as="geometry">
            <mxPoint x="538" y="680" as="sourcePoint" />
            <mxPoint x="490.5" y="679.47" as="targetPoint" />
            <Array as="points" />
          </mxGeometry>
        </mxCell>
        <mxCell id="3GplsCGxQkK43SpxvfvO-9" value="No" style="text;html=1;strokeColor=none;fillColor=none;align=center;verticalAlign=middle;whiteSpace=wrap;rounded=0;" vertex="1" parent="1">
          <mxGeometry x="435" y="750" width="30" height="10" as="geometry" />
        </mxCell>
        <mxCell id="3GplsCGxQkK43SpxvfvO-11" value="" style="endArrow=none;html=1;rounded=0;entryX=1;entryY=0.5;entryDx=0;entryDy=0;" edge="1" parent="1">
          <mxGeometry width="50" height="50" relative="1" as="geometry">
            <mxPoint x="440.20000000000005" y="770" as="sourcePoint" />
            <mxPoint x="440.20000000000005" y="730" as="targetPoint" />
            <Array as="points" />
          </mxGeometry>
        </mxCell>
        <mxCell id="3GplsCGxQkK43SpxvfvO-12" value="Filtrado a traves de:&lt;br&gt;-Tipo de componentes(Accesorio, Conectivity, Kit de mtto, Producto,Refaccion, Servicio, Software, Toner).&lt;br&gt;-Almacen.&lt;br&gt;-Modelo." style="whiteSpace=wrap;html=1;align=left;fillColor=#1ba1e2;strokeColor=#006EAF;fontColor=#ffffff;rounded=0;" vertex="1" parent="1">
          <mxGeometry x="538" y="620" width="167.5" height="120" as="geometry" />
        </mxCell>
        <mxCell id="3GplsCGxQkK43SpxvfvO-18" style="edgeStyle=orthogonalEdgeStyle;rounded=0;orthogonalLoop=1;jettySize=auto;html=1;" edge="1" parent="1">
          <mxGeometry relative="1" as="geometry">
            <mxPoint x="840" y="590" as="sourcePoint" />
            <mxPoint x="940" y="540" as="targetPoint" />
            <Array as="points">
              <mxPoint x="840" y="580" />
              <mxPoint x="889" y="580" />
              <mxPoint x="889" y="540" />
              <mxPoint x="930" y="540" />
            </Array>
          </mxGeometry>
        </mxCell>
        <mxCell id="3GplsCGxQkK43SpxvfvO-24" value="" style="edgeStyle=orthogonalEdgeStyle;rounded=0;orthogonalLoop=1;jettySize=auto;html=1;" edge="1" parent="1" source="3GplsCGxQkK43SpxvfvO-13" target="3GplsCGxQkK43SpxvfvO-23">
          <mxGeometry relative="1" as="geometry" />
        </mxCell>
        <mxCell id="3GplsCGxQkK43SpxvfvO-13" value="Mesa de ayuda" style="whiteSpace=wrap;html=1;align=left;fillColor=#1ba1e2;strokeColor=#006EAF;fontColor=#ffffff;rounded=0;" vertex="1" parent="1">
          <mxGeometry x="758" y="570" width="90" height="20" as="geometry" />
        </mxCell>
        <mxCell id="3GplsCGxQkK43SpxvfvO-22" style="edgeStyle=orthogonalEdgeStyle;rounded=0;orthogonalLoop=1;jettySize=auto;html=1;exitX=0.5;exitY=1;exitDx=0;exitDy=0;entryX=0.5;entryY=0;entryDx=0;entryDy=0;" edge="1" parent="1" source="3GplsCGxQkK43SpxvfvO-15" target="3GplsCGxQkK43SpxvfvO-19">
          <mxGeometry relative="1" as="geometry" />
        </mxCell>
        <mxCell id="3GplsCGxQkK43SpxvfvO-15" value="Alta ticket." style="rounded=0;whiteSpace=wrap;html=1;align=left;fillColor=#1ba1e2;strokeColor=#006EAF;fontColor=#ffffff;" vertex="1" parent="1">
          <mxGeometry x="940" y="525" width="60" height="30" as="geometry" />
        </mxCell>
        <mxCell id="3GplsCGxQkK43SpxvfvO-25" style="edgeStyle=orthogonalEdgeStyle;rounded=0;orthogonalLoop=1;jettySize=auto;html=1;exitX=0.75;exitY=1;exitDx=0;exitDy=0;" edge="1" parent="1" source="3GplsCGxQkK43SpxvfvO-16">
          <mxGeometry relative="1" as="geometry">
            <mxPoint x="770" y="750" as="targetPoint" />
            <Array as="points">
              <mxPoint x="203" y="840" />
              <mxPoint x="680" y="840" />
            </Array>
          </mxGeometry>
        </mxCell>
        <mxCell id="3GplsCGxQkK43SpxvfvO-16" value="Creacion de un ticket de resurtido de un almacen" style="whiteSpace=wrap;html=1;align=left;fillColor=#1ba1e2;strokeColor=#006EAF;fontColor=#ffffff;rounded=0;" vertex="1" parent="1">
          <mxGeometry x="113" y="618" width="120" height="60" as="geometry" />
        </mxCell>
        <mxCell id="3GplsCGxQkK43SpxvfvO-26" style="edgeStyle=orthogonalEdgeStyle;rounded=0;orthogonalLoop=1;jettySize=auto;html=1;exitX=0.25;exitY=1;exitDx=0;exitDy=0;" edge="1" parent="1" source="3GplsCGxQkK43SpxvfvO-19" target="3GplsCGxQkK43SpxvfvO-23">
          <mxGeometry relative="1" as="geometry">
            <mxPoint x="890" y="770" as="targetPoint" />
            <Array as="points">
              <mxPoint x="970" y="750" />
            </Array>
          </mxGeometry>
        </mxCell>
        <mxCell id="3GplsCGxQkK43SpxvfvO-19" value="Generacion de un ticket normal que puede ser de tipo toner y no necesariamente resurtido." style="whiteSpace=wrap;html=1;align=left;fillColor=#1ba1e2;strokeColor=#006EAF;fontColor=#ffffff;rounded=0;" vertex="1" parent="1">
          <mxGeometry x="940" y="595" width="120" height="83" as="geometry" />
        </mxCell>
        <mxCell id="3GplsCGxQkK43SpxvfvO-29" style="edgeStyle=orthogonalEdgeStyle;rounded=0;orthogonalLoop=1;jettySize=auto;html=1;exitX=0.5;exitY=1;exitDx=0;exitDy=0;entryX=0.5;entryY=0;entryDx=0;entryDy=0;entryPerimeter=0;" edge="1" parent="1" source="3GplsCGxQkK43SpxvfvO-23" target="3GplsCGxQkK43SpxvfvO-27">
          <mxGeometry relative="1" as="geometry" />
        </mxCell>
        <mxCell id="3GplsCGxQkK43SpxvfvO-23" value="Validar ticket toner" style="whiteSpace=wrap;html=1;align=left;fillColor=#1ba1e2;strokeColor=#006EAF;fontColor=#ffffff;rounded=0;" vertex="1" parent="1">
          <mxGeometry x="780" y="730" width="107" height="40" as="geometry" />
        </mxCell>
        <mxCell id="3GplsCGxQkK43SpxvfvO-27" value="¿Se autoriza?" style="strokeWidth=2;html=1;shape=mxgraph.flowchart.decision;whiteSpace=wrap;fillColor=#1ba1e2;fontColor=#ffffff;strokeColor=#006EAF;" vertex="1" parent="1">
          <mxGeometry x="783.5" y="820" width="100" height="100" as="geometry" />
        </mxCell>
        <mxCell id="3GplsCGxQkK43SpxvfvO-30" value="Si" style="text;html=1;strokeColor=none;fillColor=none;align=center;verticalAlign=middle;whiteSpace=wrap;rounded=0;" vertex="1" parent="1">
          <mxGeometry x="742" y="857" width="30" height="10" as="geometry" />
        </mxCell>
        <mxCell id="3GplsCGxQkK43SpxvfvO-31" value="" style="endArrow=none;html=1;rounded=0;entryX=1;entryY=0.5;entryDx=0;entryDy=0;" edge="1" parent="1">
          <mxGeometry width="50" height="50" relative="1" as="geometry">
            <mxPoint x="782" y="869" as="sourcePoint" />
            <mxPoint x="734.5" y="868.47" as="targetPoint" />
            <Array as="points" />
          </mxGeometry>
        </mxCell>
        <mxCell id="3GplsCGxQkK43SpxvfvO-32" value="No" style="text;html=1;strokeColor=none;fillColor=none;align=center;verticalAlign=middle;whiteSpace=wrap;rounded=0;" vertex="1" parent="1">
          <mxGeometry x="900" y="857" width="30" height="10" as="geometry" />
        </mxCell>
        <mxCell id="3GplsCGxQkK43SpxvfvO-33" value="" style="endArrow=none;html=1;rounded=0;entryX=1;entryY=0.5;entryDx=0;entryDy=0;" edge="1" parent="1">
          <mxGeometry width="50" height="50" relative="1" as="geometry">
            <mxPoint x="940" y="867" as="sourcePoint" />
            <mxPoint x="883.5" y="867" as="targetPoint" />
            <Array as="points" />
          </mxGeometry>
        </mxCell>
        <mxCell id="3GplsCGxQkK43SpxvfvO-35" value="El ticket no podra ser atendido ni surtido." style="whiteSpace=wrap;html=1;align=left;fillColor=#1ba1e2;strokeColor=#006EAF;fontColor=#ffffff;rounded=0;" vertex="1" parent="1">
          <mxGeometry x="940" y="828.5" width="120" height="83" as="geometry" />
        </mxCell>
        <mxCell id="3GplsCGxQkK43SpxvfvO-36" value="Almacen" style="whiteSpace=wrap;html=1;align=left;fillColor=#1ba1e2;strokeColor=#006EAF;fontColor=#ffffff;rounded=0;" vertex="1" parent="1">
          <mxGeometry x="680" y="857" width="50" height="20" as="geometry" />
        </mxCell>
      </root>
    </mxGraphModel>
  </diagram>
</mxfile>
